<svg xmlns="http://www.w3.org/2000/svg" width="344.381" height="329.143"><filter id="c"><feGaussianBlur stdDeviation="13.396"/></filter><radialGradient id="a" cx="351.155" cy="372.063" r="163.571" gradientTransform="matrix(1.14543 -1.1687 2.02953 1.91933 -889.063 57.219)" gradientUnits="userSpaceOnUse"><stop offset="0" stop-color="#189fff" stop-opacity=".38"/><stop offset="1" stop-color="#010b2b"/></radialGradient><path d="M42.857 106.648h322.857v308.571H42.857z" style="fill:#fff" transform="translate(-42.857 -106.648)"/><path d="M42.857 106.648h322.857v308.571H42.857z" style="fill:url(#a)" transform="translate(-42.857 -106.648)"/><path d="M43.707 106.656c-1.924 4.196-.294 9.912-.796 14.716l.652 144.003c11.845 10.47 28.927 8.88 43.59 10.912 53.493 3.444 107.283 3.611 160.606-2.449 34.026-3.435 68.053-8.731 100.89-18.413 8.36-2.807 18.86-9.223 17.07-19.342V106.656z" style="opacity:.09583297;fill:#fff" transform="translate(-42.857 -106.648)"/><g style="opacity:.5;filter:url(#c)" transform="rotate(-45.12 213.807 65.719)scale(.48007)"><path d="M412.75 98.594c-16.556.241-29.787 13.85-29.562 30.406v196.313c0 23.307-12.117 39.131-38.22 53.468-26.101 14.337-64.972 22.875-103.874 22.875s-77.773-8.538-103.875-22.875S99 348.62 99 325.312c0-54.373.441-103.355.656-138.874.108-17.76.177-32.116.094-42.344-.042-5.114-.13-9.108-.281-12.469-.076-1.68-.137-3.056-.406-5.25-.135-1.097-.169-2.212-1-5.187-.416-1.488-.787-3.397-3.188-7.438C92.475 109.71 84.912 99 69 99a30.003 30.003 0 0 0-29.437 37.5c.063 2.03.156 4.327.187 8.094.078 9.54.013 23.815-.094 41.5-.214 35.37-.656 84.53-.656 139.219 0 47.582 30.913 84.954 69.344 106.062s85.609 30.281 132.75 30.281c47.14 0 94.32-9.173 132.75-30.281s69.344-58.48 69.344-106.062V129a30.003 30.003 0 0 0-30.438-30.406" style="fill-rule:evenodd"/><path d="M239.563 99.5c-16.557.242-29.787 13.85-29.563 30.406V350a30.003 30.003 0 1 0 60 0V129.906A30.003 30.003 0 0 0 239.563 99.5" style="fill-rule:evenodd"/><g style="stroke-width:60;stroke-linecap:round;stroke-linejoin:round"><path d="M100 30a30 30 0 1 1-60 0 30 30 0 1 1 60 0M270 30a30 30 0 1 1-60 0 30 30 0 1 1 60 0M445 30a30 30 0 1 1-60 0 30 30 0 1 1 60 0"/></g></g><g style="fill:none;stroke:#000;stroke-linecap:round"><path d="M0 0h322.857v308.571H0z"/><path d="M0 0h322.857v308.571H0zM140 0v308.571zM139.56 100.786H.44zM139.56 206.786H.44z"/></g><g style="fill:#fff;fill-rule:evenodd"><path d="M232.587 170.487c-5.527 5.714-5.38 14.824.329 20.356l66.779 66.502c7.928 7.895 9.206 17.377 5.241 31.113s-14.228 29.85-27.406 43.084c-13.178 13.233-29.25 23.563-42.97 27.586-13.718 4.022-23.206 2.783-31.134-5.112-18.496-18.42-35.009-35.162-47.019-47.268-6.004-6.052-10.864-10.94-14.372-14.376a165 165 0 0 0-4.337-4.128c-.597-.543-1.085-.988-1.923-1.64-.419-.326-.81-.692-2.103-1.417-.647-.362-1.422-.883-3.61-1.435s-8.393-1.608-13.783 3.805a14.404 14.404 0 0 0 2.784 22.717c.713.666 1.526 1.412 2.817 2.678 3.271 3.205 8.106 8.063 14.085 14.09 11.96 12.055 28.533 28.858 47.136 47.384 16.186 16.118 39.37 18.262 59.569 12.34 20.198-5.922 39.3-18.863 55.27-34.9 15.969-16.035 28.83-35.191 34.668-55.414s3.598-43.399-12.588-59.517l-66.78-66.502a14.404 14.404 0 0 0-20.653.054" style="opacity:.87000002" transform="translate(-42.857 -106.648)"/><path d="M174.228 229.707c-5.527 5.713-5.38 14.824.328 20.356l74.869 74.557a14.404 14.404 0 1 0 20.325-20.41l-74.869-74.557a14.404 14.404 0 0 0-20.653.054" style="opacity:.87000002" transform="translate(-42.857 -106.648)"/><path d="M100 40a30 30 0 1 1-60 0 30 30 0 1 1 60 0" style="opacity:.87000002" transform="rotate(-45.12 208.029 68.119)scale(.48007)"/><path d="M100 40a30 30 0 1 1-60 0 30 30 0 1 1 60 0" style="opacity:.87000002" transform="rotate(-45.12 167.223 -30.106)scale(.48007)"/><path d="M100 40a30 30 0 1 1-60 0 30 30 0 1 1 60 0" style="opacity:.87000002" transform="rotate(-45.12 125.217 -131.219)scale(.48007)"/></g></svg>