<svg xmlns="http://www.w3.org/2000/svg" width="256" height="256" preserveAspectRatio="xMidYMid"><path fill="#00007d" d="M225.85 128.024c0-54.024-43.845-97.87-97.87-97.87S30.11 74 30.11 128.024s43.845 97.87 97.87 97.87 97.87-43.845 97.87-97.87"/><path fill="#fff" d="M197.195 87.475c0-15.823-12.842-28.665-28.665-28.665s-28.665 12.842-28.665 28.665 12.842 28.665 28.665 28.665 28.665-12.842 28.665-28.665"/><path fill="#00007d" d="M254.515 30.154c0-15.823-12.842-28.665-28.665-28.665s-28.665 12.842-28.665 28.665S210.027 58.82 225.85 58.82s28.665-12.842 28.665-28.665"/><path fill="#fff" d="M61.25 113.756h8.56V169.4h31.698v7.526H61.25v-63.18m55.696 17.128v30.58c0 2.35.363 4.273 1.1 5.763q2.01 4.129 7.498 4.13c5.25 0 8.823-2.4 10.723-7.226q1.55-3.87 1.55-10.623v-22.622h7.742v46.062h-7.312l.086-6.795c-.986 1.75-2.2 3.226-3.673 4.43-2.898 2.4-6.415 3.613-10.55 3.613q-9.665 0-13.167-6.58c-1.266-2.35-1.9-5.5-1.9-9.42v-31.3h7.914m65.923 18.174q2.666-.343 3.57-2.232c.343-.7.516-1.684.516-2.98q0-3.972-2.812-5.764c-2.812-1.792-4.557-1.792-8.047-1.792q-6.053 0-8.585 3.285c-.944 1.2-1.56 3.012-1.845 5.403h-7.225q.215-8.54 5.52-11.883c5.305-3.343 7.64-3.342 12.307-3.342 5.412 0 9.8 1.032 13.188 3.097q5.025 3.096 5.026 9.635v26.538q0 1.204.495 1.935c.495.731 1.025.73 2.086.73a12 12 0 0 0 1.16-.064 19 19 0 0 0 1.376-.193v5.72q-1.806.517-2.752.645c-.946.128-1.5.13-2.58.13q-4 0-5.806-2.838-.946-1.504-1.333-4.257-2.365 3.096-6.795 5.375c-4.43 2.279-6.208 2.28-9.763 2.28q-6.409 0-10.472-3.888c-4.063-3.888-4.064-5.834-4.064-9.73q0-6.4 4-9.922c4-3.522 6.164-3.795 10.494-4.34l12.344-1.546zm-16.3 20.914q2.452 1.931 5.806 1.93c2.724 0 5.36-.63 7.914-1.9 4.3-2.1 6.45-5.5 6.45-10.263v-6.226c-.945.604-2.16 1.107-3.648 1.5a31 31 0 0 1-4.378.861l-4.68.602q-4.206.559-6.326 1.76c-2.395 1.344-3.6 3.5-3.6 6.436 0 2.23.817 4 2.45 5.278z"/><path fill="#929292" d="m132.532 255.926-.102-2.935c3.63-.127 7.287-.413 10.873-.85l.356 2.914a130 130 0 0 1-11.127.871m-11.162-.09a129 129 0 0 1-11.112-1.053l.404-2.908c3.582.497 7.235.843 10.858 1.03l-.15 2.933zm33.3-2.617-.61-2.872a125 125 0 0 0 10.558-2.73l.86 2.807a127 127 0 0 1-10.808 2.795m-55.4-.454a128 128 0 0 1-10.761-2.973l.905-2.793a125 125 0 0 0 10.512 2.905zM176 246.7l-1.103-2.72a125 125 0 0 0 9.916-4.533l1.336 2.615a128 128 0 0 1-10.15 4.64zm-97.944-.81a128 128 0 0 1-10.079-4.811l1.38-2.592c3.2 1.704 6.514 3.285 9.847 4.7zm117.802-9.34-1.56-2.488a126 126 0 0 0 8.981-6.189l1.77 2.343a130 130 0 0 1-9.19 6.334zm-137.5-1.143a129 129 0 0 1-9.088-6.487l1.808-2.314a127 127 0 0 0 8.88 6.34l-1.6 2.46zm155.3-12.3-1.966-2.18a127 127 0 0 0 7.779-7.649l2.147 2.003a133 133 0 0 1-7.96 7.827zm-172.878-1.44a130 130 0 0 1-7.83-7.957l2.18-1.967c2.427 2.7 5.002 5.306 7.652 7.776zm188.093-14.875-2.312-1.81a126 126 0 0 0 6.343-8.878l2.46 1.6a129 129 0 0 1-6.492 9.085zm-203.036-1.687a129 129 0 0 1-6.338-9.189l2.487-1.56a126 126 0 0 0 6.193 8.978l-2.342 1.77zm215.205-17.014-2.59-1.38c1.705-3.2 3.29-6.512 4.705-9.845l2.702 1.15c-1.45 3.41-3.07 6.8-4.816 10.077zm-227.058-1.878a128 128 0 0 1-4.645-10.148l2.72-1.104c1.36 3.354 2.887 6.69 4.538 9.914zm235.788-18.66-2.792-.907c1.12-3.443 2.098-6.98 2.9-10.51l2.86.658a127 127 0 0 1-2.98 10.76zM5.6 165.537a127 127 0 0 1-2.8-10.807l2.872-.61a125 125 0 0 0 2.735 10.557zm249.175-19.73-2.908-.405a126 126 0 0 0 1.033-10.857l2.933.15c-.19 3.708-.547 7.446-1.058 11.11zM.957 143.72a129 129 0 0 1-.876-11.127l2.934-.104c.128 3.627.416 7.285.856 10.873l-2.914.357zm252.035-20.084a126 126 0 0 0-.856-10.876l2.914-.358a128 128 0 0 1 .876 11.132zM3.098 121.58l-2.932-.15a129 129 0 0 1 1.047-11.112l2.908.402a126 126 0 0 0-1.023 10.859zM250.335 102a126 126 0 0 0-2.732-10.563l2.808-.86a129 129 0 0 1 2.796 10.81l-2.872.6zM6.088 99.996l-2.862-.656a128 128 0 0 1 2.968-10.762l2.793.904a125 125 0 0 0-2.9 10.513zM243.962 81.15a126 126 0 0 0-4.525-9.928l2.616-1.333a129 129 0 0 1 4.631 10.161zm-231.16-1.89L10.1 78.113a128 128 0 0 1 4.806-10.08l2.592 1.378a125 125 0 0 0-4.696 9.849m10.233-19.25-2.462-1.6a129 129 0 0 1 6.483-9.091l2.314 1.807a127 127 0 0 0-6.335 8.883zM36.45 42.824l-2.15-2a129 129 0 0 1 7.953-7.835l1.968 2.18a127 127 0 0 0-7.772 7.656zm16.177-14.6-1.772-2.34a129 129 0 0 1 9.185-6.343l1.562 2.486a126 126 0 0 0-8.975 6.198zm143.494-5.1-.16-.104 1.597-2.464.155.1-1.59 2.467zm-9.568-5.627a126 126 0 0 0-9.854-4.682l1.143-2.704a128 128 0 0 1 10.085 4.792zm-115.47-.864-1.34-2.613c3.3-1.692 6.715-3.256 10.145-4.65l1.105 2.72a129 129 0 0 0-9.912 4.543zM166.475 9a126 126 0 0 0-10.517-2.9l.656-2.862a129 129 0 0 1 10.764 2.968zM91.27 8.424l-.862-2.807a128 128 0 0 1 10.806-2.805l.612 2.87A125 125 0 0 0 91.27 8.423zm53.958-4.297a126 126 0 0 0-10.862-1.03l.15-2.932c3.703.19 7.443.543 11.117 1.054l-.404 2.908zM112.58 3.88l-.36-2.914a129 129 0 0 1 11.126-.88l.105 2.934c-3.628.13-7.286.42-10.872.862z"/></svg>