<svg xmlns="http://www.w3.org/2000/svg" width="640" height="640" baseProfile="full"><path d="M160 0h40v40h-40zM200 0h40v40h-40zM240 0h40v40h-40zM280 0h40v40h-40zM320 0h40v40h-40zM360 0h40v40h-40zM400 0h40v40h-40zM440 0h40v40h-40zM480 0h40v40h-40zM280 40h40v40h-40zM320 40h40v40h-40zM360 40h40v40h-40zM280 80h40v40h-40z"/><path fill="#FFD000" d="M320 80h40v40h-40z"/><path d="M360 80h40v40h-40zM240 120h40v40h-40zM280 120h40v40h-40z"/><path fill="#FFD000" d="M320 120h40v40h-40z"/><path d="M360 120h40v40h-40zM400 120h40v40h-40zM240 160h40v40h-40z"/><path fill="#FFD000" d="M280 160h40v40h-40zM320 160h40v40h-40zM360 160h40v40h-40z"/><path d="M400 160h40v40h-40zM240 200h40v40h-40z"/><path fill="#FFD000" d="M280 200h40v40h-40zM320 200h40v40h-40z"/><path fill="#E2E83F" d="M360 200h40v40h-40z"/><path d="M400 200h40v40h-40zM160 240h40v40h-40zM200 240h40v40h-40z"/><path fill="#FFD000" d="M240 240h40v40h-40zM280 240h40v40h-40z"/><path fill="#E2E83F" d="M320 240h40v40h-40zM360 240h40v40h-40zM400 240h40v40h-40z"/><path d="M440 240h40v40h-40zM0 280h40v40H0zM40 280h40v40H40zM80 280h40v40H80zM120 280h40v40h-40zM160 280h40v40h-40z"/><path fill="#FFD000" d="M200 280h40v40h-40zM240 280h40v40h-40z"/><path fill="#E2E83F" d="M280 280h40v40h-40zM320 280h40v40h-40zM360 280h40v40h-40z"/><path fill="#FFD000" d="M400 280h40v40h-40z"/><path d="M440 280h40v40h-40zM480 280h40v40h-40zM520 280h40v40h-40z"/><path fill="#FFD000" d="M0 320h40v40H0zM40 320h40v40H40zM80 320h40v40H80zM120 320h40v40h-40zM160 320h40v40h-40zM200 320h40v40h-40zM240 320h40v40h-40z"/><path fill="#E2E83F" d="M280 320h40v40h-40zM320 320h40v40h-40zM360 320h40v40h-40z"/><path fill="#FFD000" d="M400 320h40v40h-40zM440 320h40v40h-40zM480 320h40v40h-40zM520 320h40v40h-40z"/><path d="M560 320h40v40h-40zM0 360h40v40H0zM40 360h40v40H40zM80 360h40v40H80zM120 360h40v40h-40z"/><path fill="#FFD000" d="M160 360h40v40h-40zM200 360h40v40h-40z"/><path fill="#E2E83F" d="M240 360h40v40h-40zM280 360h40v40h-40zM320 360h40v40h-40z"/><path fill="#FFD000" d="M360 360h40v40h-40z"/><path d="M400 360h40v40h-40z"/><path fill="#FFD000" d="M440 360h40v40h-40zM480 360h40v40h-40zM520 360h40v40h-40zM560 360h40v40h-40z"/><path d="M600 360h40v40h-40zM160 400h40v40h-40z"/><path fill="#E2E83F" d="M200 400h40v40h-40zM240 400h40v40h-40zM280 400h40v40h-40z"/><path fill="#FFD000" d="M320 400h40v40h-40z"/><path d="M360 400h40v40h-40zM440 400h40v40h-40z"/><path fill="#FFD000" d="M480 400h40v40h-40zM520 400h40v40h-40zM560 400h40v40h-40z"/><path d="M600 400h40v40h-40zM200 440h40v40h-40zM240 440h40v40h-40zM280 440h40v40h-40zM320 440h40v40h-40zM360 440h40v40h-40zM480 440h40v40h-40z"/><path fill="#FFD000" d="M520 440h40v40h-40zM560 440h40v40h-40z"/><path d="M600 440h40v40h-40zM480 480h40v40h-40zM520 480h40v40h-40zM560 480h40v40h-40zM600 480h40v40h-40z"/><path fill="#3A46E8" d="M520 520h40v40h-40zM560 520h40v40h-40zM520 560h40v40h-40zM560 560h40v40h-40zM520 600h40v40h-40zM560 600h40v40h-40z"/></svg>