<svg xmlns="http://www.w3.org/2000/svg" viewBox="-75.5 0 399 399" version="1.0"><path d="m298.556 93.726-18.66 98.524 22.019 72.027 50.381-16.794 30.602-32.841 40.305-100.763-11.942-11.57-67.548 22.02z" style="fill:#992b2b" transform="translate(-203.391 -9.33)"/><path d="M341.25 12.813c-11.022-.026-19.497 1.777-23 5.656-5.557 6.154-18.347 52.05-34.312 122.187-11.52 50.47-3.528 79.904 4.343 95.657 10.063 20.138 17.905 32.248 2 72.437-11.519 29.107-23.272 34.678-34.187 36.063-26.306-6.326-46.158-6.553-48.75.562-3.547 9.733 26.468 29.46 67 44.063 40.531 14.601 76.328 18.576 79.875 8.843 2.601-7.138-12.9-19.662-37.313-31.594-10.717-11.042-20.33-18.734-11.844-52.937 16.604-66.912 41.93-43.915 71.782-85.5 25.321-35.275 32.026-62.34 46.687-103.687 15.534-43.81 22.355-64.09 20.344-68.094-13.543-26.974-69.559-43.58-102.625-43.656M343.531 22c12.319.108 27.979 2.796 40.688 7.344 27.236 9.745 51.817 23.366 50.375 31.531-3.646 20.636-11.602 37.493-13.625 43.313-26.635-25.762-60.839 51.119-115.688-12.5 0 0 10.488-40.416 17.719-63.47 1.382-4.404 9.662-6.313 20.531-6.218m-40.125 79.938c55.491 60.72 94.232-15.16 114.563 11.187-6.963 22.867-48.923 161.325-104.844 136.594-46.324-20.193-19.497-123.148-9.719-147.781" style="fill:#fff" transform="translate(-203.391 -9.33)"/></svg>
