<svg xmlns="http://www.w3.org/2000/svg" width="64" height="64"><defs><linearGradient id="a" x1="22.625" x2="22.625" y1="-.173" y2="211.998" gradientUnits="userSpaceOnUse"><stop offset="0%" stop-color="#16b0ed" stop-opacity=".8"/><stop offset="100%" stop-color="#0f59b2" stop-opacity=".837"/></linearGradient><linearGradient id="b" x1="152.09" x2="152.09" y1="-.148" y2="211.998" gradientUnits="userSpaceOnUse"><stop offset="0%" stop-color="#7db643"/><stop offset="100%" stop-color="#367533"/></linearGradient><linearGradient id="c" x1="87.475" x2="87.475" y1="-.137" y2="212.054" gradientUnits="userSpaceOnUse"><stop offset="0%" stop-color="#88c649" stop-opacity=".8"/><stop offset="100%" stop-color="#439240" stop-opacity=".84"/></linearGradient></defs><g fill-rule="evenodd"><path fill="url(#a)" d="M.027 45.46 45.224-.173v212.17L.027 166.894z" transform="matrix(.30156 0 0 .30156 5.613 .052)"/><path fill="url(#b)" d="M129.337 45.89 175.152-.148l-.93 212.147-45.197-45.104z" transform="matrix(-.30156 0 0 .30156 97.288 .052)"/><path fill="url(#c)" d="m45.194-.137 117.506 179.3-32.882 32.88L12.25 33.14z" transform="matrix(.30156 0 0 .30156 5.613 .052)"/><path fill-opacity=".13" d="m19.254 25.092-.019 2.13-10.94-16.153 1.012-1.032z"/></g></svg>