<svg xmlns="http://www.w3.org/2000/svg" width="24" height="24"><path d="M3 12.045q0-1.485.45-2.777A6.9 6.9 0 0 1 4.764 7H6.23a7.9 7.9 0 0 0-1.25 2.374 8.56 8.56 0 0 0 .007 5.314q.435 1.276 1.23 2.312h-1.45a6.5 6.5 0 0 1-1.314-2.223 8.1 8.1 0 0 1-.45-2.732M10 16a1 1 0 1 1-2 0 1 1 0 0 1 2 0m4.25-8.987-.24 2.156 2.187-.61.193 1.47-1.992.14 1.307 1.74-1.33.71-.914-1.833-.8 1.822-1.38-.698 1.296-1.74-1.98-.152.23-1.464 2.14.61-.24-2.158h1.534M21 12.045q0 1.472-.457 2.744A6.5 6.5 0 0 1 19.236 17h-1.453a8 8 0 0 0 1.225-2.31q.434-1.281.434-2.66 0-1.365-.422-2.66a7.9 7.9 0 0 0-1.248-2.374h1.465a6.8 6.8 0 0 1 1.313 2.28q.45 1.29.45 2.764"/></svg>